<?xml version="1.0" encoding="utf-8"?>
<!-- Generator: Adobe Illustrator 16.0.0, SVG Export Plug-In . SVG Version: 6.00 Build 0)  -->
<!DOCTYPE svg PUBLIC "-//W3C//DTD SVG 1.1//EN" "http://www.w3.org/Graphics/SVG/1.1/DTD/svg11.dtd">
<svg version="1.1" id="vector" xmlns="http://www.w3.org/2000/svg" xmlns:xlink="http://www.w3.org/1999/xlink" x="0px" y="0px"
	 width="555.709px" height="119.155px" viewBox="13.621 518.4 555.709 119.155"
	 enable-background="new 13.621 518.4 555.709 119.155" xml:space="preserve">
<g id="group">
	<path id="path" d="M132.796,518.519c-0.095,0.061-0.762,0.119-1.488,0.119l-1.31,0.012l-4.107,9.715
		c-2.262,5.346-4.12,9.787-4.143,9.87c-0.036,0.144,0.655,0.167,3.94,0.167h3.988l0.929-2.203l0.941-2.202h3.548
		c1.94,0,3.536,0.024,3.536,0.036c0,0.023-0.429,1-0.952,2.154c-0.524,1.167-0.953,2.143-0.953,2.167s1.869,0.048,4.155,0.048h4.155
		l0.119-0.334c0.06-0.178,0.988-2.631,2.048-5.44c3.06-8.12,4.881-13.334,4.881-14.001c0-0.215-0.155-0.227-3.5-0.227h-3.5
		l-0.31,0.799c-0.167,0.451-1.048,2.738-1.953,5.095l-1.655,4.286l-3.715,0.035c-2.036,0.013-3.703-0.012-3.703-0.047
		c0-0.072,4.25-9.882,4.37-10.084C138.189,518.353,133.01,518.388,132.796,518.519z M158.286,518.662
		c-0.06,0.155-1.917,4.561-4.119,9.799c-2.215,5.238-4.048,9.619-4.084,9.727c-0.047,0.203,0.572,0.215,11.846,0.215h11.906
		l0.988-2.238c0.536-1.227,1-2.298,1.036-2.381c0.047-0.107-1.024-0.143-5.143-0.143c-4.441,0-5.191-0.024-5.144-0.168
		c0.036-0.095,0.405-0.951,0.822-1.904l0.75-1.727l2.845-0.035l2.846-0.036l0.512-1.237c0.286-0.68,0.524-1.263,0.524-1.287
		c0-0.012-1.203-0.035-2.679-0.035c-1.477,0-2.679-0.047-2.679-0.096c0-0.047,0.393-0.976,0.869-2.059l0.881-1.953l4.346-0.035
		l4.345-0.024l1.083-2.25c0.607-1.238,1.095-2.274,1.095-2.321c0-0.036-5.119-0.072-11.37-0.072h-11.37L158.286,518.662z
		 M92.459,522.769c-1.06,2.287-1.929,4.18-1.929,4.227c0,0.061,2.274,0.096,5.048,0.096h5.048l-2.607,5.607
		c-1.429,3.072-2.607,5.619-2.607,5.655c0,0.024,2.155,0.048,4.798,0.048h4.786l2.405-5.631l2.393-5.62l4.346-0.036l4.346-0.023
		l1.81-4.084c1-2.238,1.845-4.143,1.869-4.227c0.048-0.106-2.774-0.143-13.858-0.143H94.388L92.459,522.769z M97.591,544.367
		c-2.19,0.214-3.822,0.928-5.203,2.297l-0.845,0.846l-7.477,17.68c-6.214,14.716-7.465,17.775-7.465,18.216
		c0.012,1.619,1.786,3.346,3.929,3.798c0.488,0.107,5.596,0.131,20.478,0.107l19.823-0.035l0.976-0.382
		c1.119-0.429,2.298-1.167,3.262-2.036c0.75-0.678,0.703-0.595,3.703-6.929c5.274-11.12,8.822-19.501,10.382-24.562
		c0.738-2.393,0.953-3.428,0.953-4.715l0.012-1.106l-0.56-0.513c-1.298-1.166-2.917-2-4.929-2.5l-1.155-0.297l-17.454,0.012
		C106.425,544.259,98.126,544.307,97.591,544.367z M149.892,547.295c-9.774,25.645-14.12,37.884-14.12,39.705v0.333h15.073
		l3.453-3.096l3.44-3.095h7.537l0.071,0.5c0.036,0.286,0.179,1.655,0.321,3.036l0.274,2.535h17.156l9.096-21.406
		c5.012-11.762,9.12-21.43,9.144-21.489c0.024-0.048-3.107-0.083-6.977-0.083h-7.024l-1.953,3.834
		c-1.083,2.119-3.024,5.939-4.322,8.5l-2.369,4.654l-2.655-3.023l-2.667-3.012h-8.072l-4.06,2.928
		c-2.227,1.607-4.072,2.906-4.096,2.882c-0.012-0.012,1.333-3.524,2.988-7.774c1.667-4.262,3.131-8.024,3.262-8.369l0.238-0.619
		h-12.572L149.892,547.295z M214.909,544.319c-0.107,0.179-17.978,42.599-18.037,42.813c-0.047,0.19,1.203,0.202,25.573,0.179
		l25.621-0.035l2.25-5.107c1.238-2.811,2.25-5.132,2.25-5.156c0-0.012-5.036-0.035-11.191-0.035s-11.191-0.035-11.191-0.072
		c0-0.059,2.953-6.833,3.464-7.94l0.143-0.321h12.072l1.19-2.715l1.179-2.702l-5.857-0.06l-5.87-0.06l1.977-4.56l1.976-4.549h18.787
		l2.369-4.833c1.31-2.667,2.381-4.857,2.381-4.882C263.996,544.188,214.957,544.236,214.909,544.319z M430.21,545.117
		c-0.203,0.477-1,2.452-1.775,4.369c-0.785,1.929-2.773,6.738-4.428,10.703c-1.656,3.965-3.084,7.418-3.18,7.68
		c-0.477,1.357-2.215,2.107-5.346,2.309c-3.547,0.227-7.369-0.32-8.881-1.285c-1.061-0.679-1.166-1.154-0.572-2.584
		c1.43-3.488,9.227-21.549,9.311-21.572c0.523-0.215-0.881-0.262-8.512-0.262h-8.607l-8.121,19.191
		c-6.107,14.43-8.119,19.322-8.119,19.668c0,1.548,1.393,3.096,3.393,3.738l0.775,0.262h19.738c21.336,0,20.229,0.036,21.752-0.619
		c1.25-0.523,3.215-2.023,3.572-2.727c0.094-0.178,0.963-2.333,1.916-4.773c5.75-14.703,10.119-26.455,11.584-31.109
		c0.465-1.488,0.965-3.417,0.965-3.727c0-0.107-1.584-0.143-7.549-0.143h-7.547L430.21,545.117z M459.212,544.319
		c-0.107,0.179-17.979,42.599-18.037,42.813c-0.049,0.19,0.762,0.202,16.238,0.179l16.299-0.035l2.131-4.668l2.131-4.679
		l6.965-0.024l6.953-0.035l1.596-3.929c0.881-2.167,1.596-3.94,1.596-3.952c0-0.024-2.811-0.049-6.238-0.061l-6.238-0.035
		l1.928-4.965l1.918-4.977h14.535l3.596-7.655c1.977-4.214,3.619-7.751,3.668-7.857c0.07-0.19-1.691-0.202-24.455-0.202
		C470.296,544.236,459.236,544.271,459.212,544.319z M520.287,544.319c-0.105,0.179-17.977,42.599-18.035,42.813
		c-0.049,0.19,0.762,0.202,16.238,0.179l16.299-0.035l2.131-4.668l2.131-4.679l6.965-0.024l6.953-0.035l1.596-3.929
		c0.881-2.167,1.596-3.94,1.596-3.952c0-0.024-2.811-0.049-6.238-0.061l-6.24-0.035l1.93-4.965l1.916-4.977h14.537l3.596-7.655
		c1.977-4.214,3.619-7.751,3.668-7.857c0.07-0.19-1.691-0.202-24.455-0.202C531.373,544.236,520.312,544.271,520.287,544.319z
		 M22.633,565.82c-4.953,11.728-9.013,21.371-9.013,21.418c0,0.061,5.87,0.096,13.037,0.096h13.025l2.738-5.523l2.726-5.537
		l10.156-0.035c10.12-0.035,10.167-0.048,10.953-0.31c1.464-0.488,2.845-1.619,3.917-3.214c0.274-0.405,1.083-1.965,1.786-3.453
		c5.62-11.822,8.037-19.24,7.024-21.479c-0.369-0.797-2.56-2.095-4.465-2.654c-2.321-0.666-1.655-0.654-23.097-0.654H31.658
		L22.633,565.82z M266.936,565.82c-4.953,11.728-9.012,21.371-9.012,21.418c0,0.061,5.869,0.096,13.037,0.096h13.024l2.738-5.535
		l2.728-5.537h4.189l3.668,5.537l3.654,5.535h5.453c4.334,0,5.441-0.035,5.369-0.154c-0.059-0.072-1.643-2.536-3.523-5.465
		c-1.881-2.941-3.43-5.357-3.43-5.381c0-0.024,1.107-0.072,2.477-0.107c2.047-0.048,2.596-0.107,3.25-0.31
		c1.441-0.452,2.834-1.596,3.918-3.202c0.273-0.405,1.082-1.965,1.785-3.453c5.619-11.822,8.037-19.24,7.023-21.479
		c-0.369-0.797-2.559-2.095-4.463-2.654c-2.322-0.666-1.656-0.654-23.098-0.654H275.96L266.936,565.82z M328.011,565.82
		C323.06,577.547,319,587.191,319,587.238c0,0.061,5.869,0.096,13.037,0.096h13.023l2.738-5.523l2.727-5.537l10.156-0.035
		c10.119-0.035,10.168-0.048,10.953-0.31c1.465-0.488,2.846-1.619,3.916-3.214c0.275-0.405,1.084-1.965,1.787-3.453
		c5.619-11.822,8.035-19.24,7.023-21.479c-0.369-0.797-2.559-2.095-4.465-2.654c-2.32-0.666-1.654-0.654-23.096-0.654h-19.764
		L328.011,565.82z M255.245,592.287c-3.357,0.321-5.655,1.297-7.787,3.322c-1.024,0.964-1.905,2.238-2.274,3.297
		c-0.333,0.929-0.452,2.941-0.238,3.941c0.071,0.381,0.357,1.131,0.619,1.666c0.393,0.774,0.703,1.191,1.572,2.049
		c0.988,0.977,2.06,1.727,11.822,8.25c5.905,3.941,10.81,7.203,10.906,7.238c0.238,0.084,20.406-14.549,21.31-15.477
		c2.645-2.703,2.477-7.477-0.381-10.465c-2.547-2.668-5.536-3.775-10.19-3.775c-3.536,0-5.798,0.572-7.56,1.894
		c-0.774,0.583-1.941,1.894-2.727,3.048l-0.56,0.834l-0.643-0.881c-2.464-3.311-5.881-4.764-11.608-4.93
		C256.531,592.263,255.507,592.263,255.245,592.287z M151.071,594.501c-0.083,0.214-2.095,4.977-4.453,10.572l-4.298,10.18
		l-0.679,0.631c-0.905,0.832-2.322,1.523-3.75,1.82c-1.024,0.203-1.679,0.227-8.382,0.227h-7.274l-3.119,7.406
		c-2.536,6.047-3.107,7.512-3.107,7.951c0.012,1.18,1.036,2.561,2.417,3.252c1.393,0.713,0.19,0.678,21.454,0.678
		c21.633,0,20.097,0.059,21.788-0.785c1.143-0.561,2.31-1.453,3.572-2.738l1.071-1.096l6.941-19.145
		c3.81-10.537,6.929-19.191,6.929-19.252c0-0.047-6.513-0.082-14.478-0.082h-14.465L151.071,594.501z M225.314,595.001
		c-0.203,0.476-1,2.452-1.774,4.369c-0.786,1.928-2.774,6.738-4.429,10.703s-3.083,7.416-3.179,7.68
		c-0.476,1.357-2.214,2.107-5.346,2.309c-3.548,0.227-7.37-0.32-8.881-1.285c-0.667-0.43-0.953-0.834-0.953-1.346
		c0.012-0.238,0.786-2.215,1.905-4.857c3.667-8.607,7.548-17.561,7.715-17.822c0.095-0.144,0.167-0.299,0.167-0.334
		s-3.87-0.06-8.608-0.06h-8.608l-8.12,19.192c-6.107,14.43-8.12,19.322-8.12,19.668c0,1.547,1.393,3.096,3.393,3.738l0.774,0.262
		h19.74c21.334,0,20.228,0.035,21.751-0.619c1.25-0.523,3.214-2.023,3.572-2.727c0.095-0.178,0.964-2.334,1.917-4.773
		c5.75-14.703,10.12-26.455,11.584-31.109c0.464-1.488,0.964-3.418,0.964-3.727c0-0.107-1.583-0.143-7.548-0.143h-7.548
		L225.314,595.001z M314.916,594.203c-0.107,0.18-17.977,42.6-18.037,42.813c-0.047,0.191,1.203,0.203,25.574,0.18l25.621-0.035
		l2.25-5.109c1.238-2.809,2.25-5.131,2.25-5.154c0-0.012-5.037-0.035-11.191-0.035c-6.156,0-11.191-0.037-11.191-0.072
		c0-0.238,3.619-8.273,4.881-10.822c0.846-1.701,2.404-5.119,3.465-7.596l1.928-4.488h18.787l2.369-4.834
		c1.311-2.666,2.383-4.857,2.383-4.881C364.003,594.072,314.964,594.121,314.916,594.203z M376.349,594.203
		c-0.107,0.18-17.979,42.6-18.037,42.813c-0.049,0.191,1.203,0.203,25.572,0.18l25.621-0.035l2.25-5.109
		c1.238-2.809,2.25-5.131,2.25-5.154c0-0.012-5.035-0.035-11.191-0.035c-6.154,0-11.189-0.037-11.189-0.072
		c0-0.059,2.951-6.834,3.463-7.941l0.145-0.32h12.072l1.189-2.715l1.18-2.703l-5.857-0.059l-5.871-0.061l1.977-4.559l1.977-4.549
		h18.787l2.369-4.834c1.311-2.666,2.381-4.857,2.381-4.881C425.435,594.072,376.396,594.121,376.349,594.203z M242.292,623.253
		c-0.19,0.32-6.155,14.072-6.155,14.191c0,0.096,6.56,0.119,25.859,0.107l25.859-0.037l2.833-7.084
		c1.561-3.893,2.834-7.119,2.834-7.166C293.521,623.146,242.363,623.146,242.292,623.253z"/>
</g>
</svg>
